<svg xmlns="http://www.w3.org/2000/svg" viewBox="0 0 960 960"><g id="レイヤー_2" data-name="レイヤー 2"><g id="レイヤー_1-2" data-name="レイヤー 1"><polygon points="536.66 0 180.65 100.53 0 423.34 100.53 779.35 423.34 960 779.35 859.48 960 536.66 859.48 180.65 536.66 0" style="fill:#e6e6e6"/><path d="M425.55,852a16.38,16.38,0,0,1,5.89,12.85,15,15,0,0,1-2.57,8.81,135.49,135.49,0,0,1-45.66,40A126.79,126.79,0,0,1,272,917.9a133.37,133.37,0,0,1-42-29.74,140.47,140.47,0,0,1-28.36-43.87,143.16,143.16,0,0,1,0-106.64A141.22,141.22,0,0,1,230,694a131.08,131.08,0,0,1,42-29.55,124.5,124.5,0,0,1,51.19-10.65q27.62,0,48.79,8.81a122.75,122.75,0,0,1,37.74,24.6A100,100,0,0,1,423,702.6a31.4,31.4,0,0,1,5.9,18.35,22.71,22.71,0,0,1-6.63,16.15,21.5,21.5,0,0,1-16.2,7,20.79,20.79,0,0,1-16.21-7,23,23,0,0,1-6.26-15.78,20.25,20.25,0,0,1,3.69-12.12q1.83-2.93-.37-4.77a64.68,64.68,0,0,0-28.54-18.17,115.69,115.69,0,0,0-35.16-5.32q-29.83,0-53,14.68a105.1,105.1,0,0,0-36.63,39.46q-13.46,24.78-13.44,56t13.62,55.79a102.09,102.09,0,0,0,37,38.73q23.37,14.13,52.47,14.14a100.57,100.57,0,0,0,48.6-11.94,98,98,0,0,0,35.72-32.48q4-5.88,10.68-5.88A10.83,10.83,0,0,1,425.55,852Z" style="fill:#c94f7c"/><path d="M499,929.57A51,51,0,0,1,452,899,49.73,49.73,0,0,1,452,860,51,51,0,0,1,499,829.38a50.32,50.32,0,0,1,19.76,3.88A51.12,51.12,0,0,1,545.92,860a49.73,49.73,0,0,1,0,38.94,51.15,51.15,0,0,1-27.12,26.74A50.32,50.32,0,0,1,499,929.57Zm0-13.42A35.69,35.69,0,0,0,518.13,911a37,37,0,0,0,13-13.42,36.18,36.18,0,0,0,4.72-18.14,35.6,35.6,0,0,0-4.82-18.15,37.7,37.7,0,0,0-13.14-13.42A35.41,35.41,0,0,0,499,842.8a36.12,36.12,0,0,0-19.28,5.11,36.93,36.93,0,0,0-13,13.42A36.12,36.12,0,0,0,462,879.48a35.56,35.56,0,0,0,4.82,18.14A37.7,37.7,0,0,0,480,911,35.69,35.69,0,0,0,499,916.15Z"/><path d="M665.47,915.2a6.43,6.43,0,0,1,4.82,2.08,7.43,7.43,0,0,1-.37,10.49,6.23,6.23,0,0,1-5.58,1.61A68.34,68.34,0,0,0,653,928.06a10.51,10.51,0,0,1-7-2.56,11.74,11.74,0,0,1-4-6.14c-.38-1.26-1-1.45-1.89-.57a42.68,42.68,0,0,1-12,7.85,35.77,35.77,0,0,1-14.46,2.93,45.82,45.82,0,0,1-20.41-4.35,44.53,44.53,0,0,1-14.94-11.63,51.82,51.82,0,0,1-9.16-16.16,53.29,53.29,0,0,1-3.12-17.77,58.39,58.39,0,0,1,2.74-17.48A51.22,51.22,0,0,1,577.2,846a42.1,42.1,0,0,1,14.27-11.82q8.6-4.44,20.32-4.44a32.91,32.91,0,0,1,15.41,3.69,45.44,45.44,0,0,1,12.38,9.35,1.62,1.62,0,0,0,1.13.57c.63,0,.95-.44.95-1.32V801.22c0-1-.45-1.51-1.33-1.51a34.15,34.15,0,0,0-4.44.28,32.72,32.72,0,0,1-4.25.28,6.45,6.45,0,0,1-6.43-6.42,6.61,6.61,0,0,1,2.08-5,6,6,0,0,1,5.1-1.61c1.77.13,3.72.28,5.86.47s4.23.35,6.24.48a11.82,11.82,0,0,1,8,3.4,10.64,10.64,0,0,1,3.3,7.94V915a1.34,1.34,0,0,0,1.52,1.51,13.33,13.33,0,0,0,4.15-.66A13.14,13.14,0,0,1,665.47,915.2Zm-52,.57a34.2,34.2,0,0,0,16.35-3.69,32.21,32.21,0,0,0,11.06-9.35,3.29,3.29,0,0,0,.76-2.08v-42a3.32,3.32,0,0,0-.76-2.08A40.29,40.29,0,0,0,628.33,847a33.62,33.62,0,0,0-15-3.59,30.27,30.27,0,0,0-17.1,4.82,32.7,32.7,0,0,0-11.34,12.95,40.31,40.31,0,0,0-4.07,18.34A39.7,39.7,0,0,0,585,897.81,33.59,33.59,0,0,0,596.67,911,30.06,30.06,0,0,0,613.49,915.77Z"/><path d="M757.78,885.9H691.62c-1.26,0-1.77.63-1.51,1.89a35.61,35.61,0,0,0,6.61,14.75,34.45,34.45,0,0,0,27.6,13.61A31.32,31.32,0,0,0,738,913a35.48,35.48,0,0,0,11.25-8.41,8.5,8.5,0,0,1,6.05-2.84,6.82,6.82,0,0,1,4,1.32,6.55,6.55,0,0,1,3,5.67,5.34,5.34,0,0,1-1.51,4,47.88,47.88,0,0,1-16.35,12.39,47.29,47.29,0,0,1-20.13,4.44,46.11,46.11,0,0,1-24.67-6.81,50.53,50.53,0,0,1-17.58-18.14,49.18,49.18,0,0,1-6.52-25,52.63,52.63,0,0,1,6.05-25.14,47.74,47.74,0,0,1,16.73-18.14,43.86,43.86,0,0,1,24.1-6.81q13.23,0,23.06,5.67A43.14,43.14,0,0,1,761.27,851a56.7,56.7,0,0,1,7.28,23.53,9.25,9.25,0,0,1-2.74,8A10.92,10.92,0,0,1,757.78,885.9Zm-35.35-43.66q-13.23,0-21.74,7.75T690.11,870.4a.42.42,0,0,1-.1.29.39.39,0,0,0-.09.28c0,.88.56,1.32,1.7,1.32H752.3c1.38,0,1.89-.63,1.51-1.89q-2.26-13.23-9.93-20.7T722.43,842.24Z"/><path d="M663.9,471.49q13.58,0,24,10a27.88,27.88,0,0,1,8.78,24.34l-4.79,67.05a48.43,48.43,0,0,1-15.17,33.92,47.59,47.59,0,0,1-34.32,14H359.79a201.21,201.21,0,0,0-30.72,2.39q-15.57,2.4-29.94,4-15.17,2.4-25.94-7.58t-10.77-25.14q0-15.15,10.77-24.75t25.94-7.18l18.36,2.4h1.6c4.25,0,6.38-2.12,6.38-6.39V99.54q0-7.19-6.38-7.19a39.09,39.09,0,0,0-12.37,2,38.63,38.63,0,0,1-12.38,2q-12.76,0-22.34-10t-9.58-22.75q0-15.15,10.77-25.14t25.94-7.58q16,1.6,33.13,4a235.28,235.28,0,0,0,32.33,2.39H642.35a47.55,47.55,0,0,1,34.32,14,48.47,48.47,0,0,1,15.17,33.92l4.79,67.05q1.59,13.58-8.38,23.94a32.48,32.48,0,0,1-24.35,10.38A31.53,31.53,0,0,1,640.75,177q-9.57-9.57-9.58-22.35,0-11.16,1.2-23.54t2-25.15v-1.59c0-3.72-2.14-5.59-6.38-5.59H394.92q-7.2,0-7.19,7.18V362.09q0,7.19,7.19,7.18H595.26a30,30,0,0,1,30.33,30.34q0,12.78-8.78,21.15a30.09,30.09,0,0,1-21.55,8.38H394.92q-7.2,0-7.19,7.18V552.11q0,7.18,7.19,7.18H628c5.3,0,7.44-2.39,6.38-7.18q-.81-13.58-2-26t-1.2-22.74a30.26,30.26,0,0,1,9.58-22.75A32.29,32.29,0,0,1,663.9,471.49Z"/><path d="M663.74,36.73H582.2V216.16a29,29,0,0,0,9.65,22.1l48.3-61.09,48.61,61.48c6.11-5,10.1-13.19,10.1-22.49V77.44C698.86,55,683.14,36.73,663.74,36.73Z" style="fill:#2286c3"/></g></g></svg>