<svg xmlns="http://www.w3.org/2000/svg" viewBox="0 0 960 291.25"><g id="レイヤー_2" data-name="レイヤー 2"><g id="レイヤー_1-2" data-name="レイヤー 1"><path d="M597.69,210a17.32,17.32,0,0,1,6.22,13.61,15.88,15.88,0,0,1-2.72,9.33A143.33,143.33,0,0,1,553,275.31a133.59,133.59,0,0,1-117.44,4.47,141.15,141.15,0,0,1-44.33-31.5,149,149,0,0,1-29.94-46.47,146.55,146.55,0,0,1-10.88-56.38,146.17,146.17,0,0,1,10.88-56.58,149.68,149.68,0,0,1,29.94-46.27,138.51,138.51,0,0,1,44.33-31.3A131.12,131.12,0,0,1,489.59,0q29.18,0,51.53,9.33A129.21,129.21,0,0,1,581,35.39a105.44,105.44,0,0,1,14,16.33,33.39,33.39,0,0,1,6.22,19.44,24.1,24.1,0,0,1-7,17.11,22.64,22.64,0,0,1-17.11,7.39A21.9,21.9,0,0,1,560,88.27a24.38,24.38,0,0,1-6.61-16.72,21.52,21.52,0,0,1,3.89-12.83q1.95-3.11-.39-5.06a68.26,68.26,0,0,0-30.13-19.25,121.89,121.89,0,0,0-37.14-5.63q-31.48,0-56,15.55a111.24,111.24,0,0,0-38.69,41.8q-14.21,26.25-14.19,59.3t14.38,59.1a108.07,108.07,0,0,0,39.08,41q24.69,15,55.41,15a106,106,0,0,0,51.33-12.64,103.47,103.47,0,0,0,37.72-34.41q4.27-6.22,11.28-6.22A11.4,11.4,0,0,1,597.69,210Z" style="fill:#c94f7c"/><path d="M675.3,291.25a53.75,53.75,0,0,1-49.7-32.34,52.42,52.42,0,0,1,0-41.12,54.12,54.12,0,0,1,99.21,0,52.54,52.54,0,0,1,0,41.12,54.07,54.07,0,0,1-28.65,28.25A53.16,53.16,0,0,1,675.3,291.25Zm0-14.17a37.79,37.79,0,0,0,20.16-5.39,39.08,39.08,0,0,0,13.78-14.18,38.17,38.17,0,0,0,5-19.16,37.56,37.56,0,0,0-5.09-19.16A39.93,39.93,0,0,0,695.26,205a37.41,37.41,0,0,0-20-5.39A38.15,38.15,0,0,0,654.94,205a39,39,0,0,0-13.77,14.18,38.07,38.07,0,0,0-5,19.16,37.46,37.46,0,0,0,5.09,19.16,39.82,39.82,0,0,0,13.87,14.18A37.79,37.79,0,0,0,675.3,277.08Z"/><path d="M851.06,276.08a6.78,6.78,0,0,1,5.09,2.19,7.53,7.53,0,0,1,2.1,5.39,7.43,7.43,0,0,1-2.5,5.69,6.58,6.58,0,0,1-5.89,1.7,73.37,73.37,0,0,0-12-1.4A11.14,11.14,0,0,1,830.5,287a12.5,12.5,0,0,1-4.19-6.49c-.4-1.33-1.07-1.53-2-.6a44.89,44.89,0,0,1-12.67,8.28,37.68,37.68,0,0,1-15.28,3.1,48.43,48.43,0,0,1-21.55-4.59A47,47,0,0,1,759,274.38a55,55,0,0,1-9.69-17.07,56.41,56.41,0,0,1-3.29-18.76,61.49,61.49,0,0,1,2.9-18.47A54.2,54.2,0,0,1,757.84,203a44.44,44.44,0,0,1,15.07-12.48q9.08-4.68,21.46-4.69a34.81,34.81,0,0,1,16.27,3.89,48.23,48.23,0,0,1,13.07,9.88,1.73,1.73,0,0,0,1.2.6c.66,0,1-.46,1-1.39V155.71c0-1.07-.47-1.6-1.4-1.6a36.11,36.11,0,0,0-4.69.3,34.67,34.67,0,0,1-4.49.3,6.83,6.83,0,0,1-6.79-6.79,7,7,0,0,1,2.2-5.29,6.29,6.29,0,0,1,5.39-1.69q2.79.19,6.18.5c2.27.2,4.46.36,6.59.49a12.54,12.54,0,0,1,8.49,3.6,11.25,11.25,0,0,1,3.49,8.38v122a1.41,1.41,0,0,0,1.6,1.59,14.62,14.62,0,0,0,4.39-.69A13.67,13.67,0,0,1,851.06,276.08Zm-54.9.6a36.09,36.09,0,0,0,17.27-3.9,34.1,34.1,0,0,0,11.68-9.88,3.42,3.42,0,0,0,.8-2.19V216.39a3.42,3.42,0,0,0-.8-2.19A42.29,42.29,0,0,0,811.84,204a35.49,35.49,0,0,0-15.87-3.8,32,32,0,0,0-18.07,5.09,34.74,34.74,0,0,0-12,13.68,42.69,42.69,0,0,0-4.29,19.36,41.94,41.94,0,0,0,4.49,19.36,35.61,35.61,0,0,0,12.28,13.88A31.75,31.75,0,0,0,796.16,276.68Z"/><path d="M948.53,245.14H878.67c-1.33,0-1.87.66-1.6,2a37.68,37.68,0,0,0,7,15.57,36.32,36.32,0,0,0,29.14,14.38,33.06,33.06,0,0,0,14.47-3.3,37.15,37.15,0,0,0,11.88-8.88,9,9,0,0,1,6.39-3,7.21,7.21,0,0,1,4.19,1.4,6.91,6.91,0,0,1,3.2,6,5.68,5.68,0,0,1-1.6,4.19,50.63,50.63,0,0,1-17.27,13.08,49.91,49.91,0,0,1-21.26,4.69,48.74,48.74,0,0,1-26.05-7.19,53.43,53.43,0,0,1-18.56-19.16,52,52,0,0,1-6.89-26.35A55.51,55.51,0,0,1,868.09,212a50.5,50.5,0,0,1,17.66-19.16,46.39,46.39,0,0,1,25.46-7.19q14,0,24.35,6a45.56,45.56,0,0,1,16.67,16.67,59.94,59.94,0,0,1,7.68,24.85,9.74,9.74,0,0,1-2.89,8.48A11.56,11.56,0,0,1,948.53,245.14ZM911.21,199q-14,0-23,8.18t-11.18,21.56a.4.4,0,0,1-.1.3.4.4,0,0,0-.1.3c0,.93.6,1.39,1.8,1.39h64.08c1.46,0,2-.66,1.59-2q-2.39-14-10.48-21.86T911.21,199Z"/><path d="M316.71,164.51H245.56q-7.4,0-10.89-4.67a16.35,16.35,0,0,1,0-20.22q3.5-4.67,10.89-4.66h71.15q7.4,0,11.09,4.66a15.69,15.69,0,0,1,0,20.22Q324.09,164.51,316.71,164.51Z"/><path d="M195.59,215.2a16.34,16.34,0,0,1,11.67,4.86,13.58,13.58,0,0,1,4.27,11.86l-2.33,32.66a23.59,23.59,0,0,1-7.39,16.53,23.16,23.16,0,0,1-16.72,6.8H47.44a98,98,0,0,0-15,1.17q-7.59,1.17-14.58,1.94a14.36,14.36,0,0,1-12.64-3.69A16,16,0,0,1,0,275.08,15.42,15.42,0,0,1,5.25,263a14.65,14.65,0,0,1,12.64-3.49l8.94,1.16h.78c2.07,0,3.11-1,3.11-3.11V34q0-3.5-3.11-3.5a18.9,18.9,0,0,0-6,1,18.85,18.85,0,0,1-6,1A14.62,14.62,0,0,1,4.67,27.58,15.57,15.57,0,0,1,0,16.5,16,16,0,0,1,5.25,4.25,14.4,14.4,0,0,1,17.89.55q7.77.78,16.13,2A115.56,115.56,0,0,0,49.77,3.66H185.09a23.17,23.17,0,0,1,16.72,6.81A23.58,23.58,0,0,1,209.2,27l2.33,32.67a13.78,13.78,0,0,1-4.08,11.66,15.83,15.83,0,0,1-11.86,5.06,15.37,15.37,0,0,1-11.28-4.67,14.92,14.92,0,0,1-4.66-10.89q0-5.43.58-11.47t1-12.25v-.77c0-1.81-1-2.73-3.11-2.73H64.55c-2.34,0-3.5,1.17-3.5,3.5V161.9c0,2.33,1.16,3.5,3.5,3.5h97.6a14.62,14.62,0,0,1,14.78,14.78,13.63,13.63,0,0,1-4.28,10.3,14.67,14.67,0,0,1-10.5,4.09H64.55c-2.34,0-3.5,1.16-3.5,3.49v56.41c0,2.33,1.16,3.5,3.5,3.5H178.09q3.89,0,3.11-3.5-.39-6.6-1-12.64c-.39-4-.58-7.71-.58-11.08a14.73,14.73,0,0,1,4.66-11.08A15.71,15.71,0,0,1,195.59,215.2Z"/><path d="M195.51,3.39H155.79V90.81a14.12,14.12,0,0,0,4.7,10.76L184,71.81l23.68,30a14.06,14.06,0,0,0,4.92-11V23.23C212.62,12.27,205,3.39,195.51,3.39Z" style="fill:#2286c3"/></g></g></svg>