<svg id="レイヤー_2" data-name="レイヤー 2" xmlns="http://www.w3.org/2000/svg" width="72" height="72" viewBox="0 0 72 72">
  <g id="Layer_1" data-name="Layer 1">
    <path id="パス_5" data-name="パス 5" d="M72,36A36,36,0,1,0,30.375,71.563V46.406H21.234V36h9.141V28.069c0-9.023,5.375-14.006,13.6-14.006a55.382,55.382,0,0,1,8.059.7v8.859H47.492c-4.472,0-5.867,2.775-5.867,5.625V36h9.984l-1.6,10.406H41.625V71.563A36.009,36.009,0,0,0,72,36Z" fill="#1877f2"/>
    <path id="パス_6" data-name="パス 6" d="M330.779,232.344l1.6-10.406h-9.984v-6.75c0-2.847,1.395-5.625,5.867-5.625H332.8V200.7a55.356,55.356,0,0,0-8.059-.7c-8.223,0-13.6,4.984-13.6,14.006v7.931H302v10.406h9.141V257.5a36.394,36.394,0,0,0,11.25,0V232.344Z" transform="translate(-280.766 -185.938)" fill="#fff"/>
  </g>
</svg>
