<svg id="Page-1" xmlns="http://www.w3.org/2000/svg" width="72" height="72" viewBox="0 0 72 72">
  <g id="Artboard-1" transform="translate(0)">
    <g id="github_buttn">
      <path id="Shape" d="M0,36A34.507,34.507,0,0,0,4.837,54.038,35.774,35.774,0,0,0,36,72,35.826,35.826,0,0,0,72,36,35.75,35.75,0,0,0,54.056,4.781,35.572,35.572,0,0,0,36,0,34.507,34.507,0,0,0,17.963,4.838,35.774,35.774,0,0,0,0,36Zm6,0a30.322,30.322,0,0,1,8.813-21.225A29.949,29.949,0,0,1,24.45,8.344a29.723,29.723,0,0,1,23.138,0A30.046,30.046,0,0,1,66,36,29.992,29.992,0,0,1,55.931,58.406,29.365,29.365,0,0,1,45,64.575V54a7.05,7.05,0,0,0-3.225-6.15q7.913-.713,11.569-4.013T57,33.375a13.439,13.439,0,0,0-3.413-9.337,12.314,12.314,0,0,0,.675-3.9,10.432,10.432,0,0,0-1.275-5.1,11.644,11.644,0,0,0-4.5.825,27.073,27.073,0,0,0-4.875,2.85,32.589,32.589,0,0,0-7.2-.788,34.578,34.578,0,0,0-7.913.862,24.365,24.365,0,0,0-4.856-2.906,12.042,12.042,0,0,0-4.631-.844,10.827,10.827,0,0,0-1.237,5.1,12.837,12.837,0,0,0,.637,3.938A13.133,13.133,0,0,0,15,33.375q0,7.162,3.637,10.425T30.3,47.813a7.353,7.353,0,0,0-2.962,4.163,11.587,11.587,0,0,1-3.825.638,4.808,4.808,0,0,1-2.587-.675,5.85,5.85,0,0,1-.619-.394,5.087,5.087,0,0,1-.581-.506q-.3-.3-.487-.469a3.977,3.977,0,0,1-.488-.581q-.3-.412-.394-.525t-.45-.6q-.356-.488-.394-.525a5.162,5.162,0,0,0-4.2-2.325q-1.312,0-1.313.563,0,.225.638.75,1.2,1.05,1.275,1.125a6.2,6.2,0,0,1,1.012.9,9.878,9.878,0,0,1,1.65,2.963A7.327,7.327,0,0,0,23.775,57,25.984,25.984,0,0,0,27,56.625v7.95a29.365,29.365,0,0,1-10.931-6.169A29.993,29.993,0,0,1,6,36Z" transform="translate(0 0)" fill="#24292f" fill-rule="evenodd"/>
      <path id="Shape-2" data-name="Shape" d="M0,0H72V72H0Z" transform="translate(0)" fill="none" fill-rule="evenodd"/>
    </g>
  </g>
</svg>
