<svg xmlns="http://www.w3.org/2000/svg" width="72" height="72" viewBox="0 0 72 72">
  <g id="Page-1" transform="translate(0 13)">
    <g id="Artboard-1" transform="translate(0 -13)">
      <g id="twitter_buttn">
        <path id="Shape" d="M0,0H72V72H0Z" fill="none" fill-rule="evenodd"/>
        <path id="Fill-1" d="M72,20.26a29.534,29.534,0,0,1-8.484,2.326,14.819,14.819,0,0,0,6.495-8.172A29.584,29.584,0,0,1,60.631,18,14.785,14.785,0,0,0,35.459,31.471,41.937,41.937,0,0,1,5.012,16.037,14.787,14.787,0,0,0,9.584,35.758a14.712,14.712,0,0,1-6.691-1.847c0,.062,0,.124,0,.186A14.78,14.78,0,0,0,14.741,48.581a14.806,14.806,0,0,1-6.671.253,14.786,14.786,0,0,0,13.8,10.259A29.639,29.639,0,0,1,3.524,65.416,30.1,30.1,0,0,1,0,65.21a41.812,41.812,0,0,0,22.644,6.637c27.17,0,42.028-22.509,42.028-42.029q0-.961-.043-1.911A30.024,30.024,0,0,0,72,20.26" transform="translate(0 -5.333)" fill="#1da1f2" fill-rule="evenodd"/>
      </g>
    </g>
  </g>
</svg>
